<svg width="1024" height="1024" viewBox="0 0 1024 1024" fill="none" xmlns="http://www.w3.org/2000/svg">
<path d="M620.453 293.312C779.479 293.313 911.543 420.303 917.7 579.228C919.242 619.269 912.693 659.211 898.443 696.663C884.194 734.115 862.537 768.309 834.769 797.198C807 826.088 773.69 849.08 736.831 864.8C699.972 880.52 660.321 888.644 620.25 888.688H325.945C206.701 888.688 106.063 791.229 106.062 672.188C106.128 623.861 122.339 576.942 152.119 538.882C181.899 500.822 223.542 473.803 270.434 462.115C272.795 461.527 275.272 461.587 277.603 462.288C279.933 462.989 282.032 464.306 283.677 466.1C285.322 467.893 286.452 470.098 286.949 472.48C287.446 474.863 287.292 477.336 286.502 479.638C274.512 515.541 268.411 553.148 268.438 591C268.428 594.722 269.186 598.407 270.665 601.822C272.144 605.238 274.312 608.312 277.033 610.852C279.754 613.391 282.969 615.342 286.479 616.583C289.988 617.824 293.715 618.328 297.428 618.062C304.371 617.424 310.818 614.188 315.479 609.001C320.139 603.814 322.668 597.059 322.562 590.087C322.655 544.202 333.414 498.967 353.989 457.954C378.748 408.485 416.787 366.882 463.848 337.805C510.909 308.727 565.134 293.321 620.453 293.312ZM849.5 158C887.332 158 918 188.668 918 226.5C918 264.332 887.332 295 849.5 295C811.668 295 781 264.332 781 226.5C781 188.668 811.668 158 849.5 158Z" fill="url(#paint0_linear_10_17)"/>
<defs>
<linearGradient id="paint0_linear_10_17" x1="963" y1="86.9999" x2="316" y2="877" gradientUnits="userSpaceOnUse">
<stop stop-color="white"/>
<stop offset="1" stop-color="#00FF91"/>
</linearGradient>
</defs>
</svg>
